<?xml version="1.0" encoding="UTF-8" standalone="no"?>
<!DOCTYPE svg PUBLIC "-//W3C//DTD SVG 1.1//EN" "http://www.w3.org/Graphics/SVG/1.1/DTD/svg11.dtd">
<svg width="100%" height="100%" viewBox="0 0 298 301" version="1.1" xmlns="http://www.w3.org/2000/svg" xmlns:xlink="http://www.w3.org/1999/xlink" xml:space="preserve" xmlns:serif="http://www.serif.com/" style="fill-rule:evenodd;clip-rule:evenodd;stroke-linejoin:round;stroke-miterlimit:2;">
    <g id="Layer_2-2">
        <g>
            <path d="M242.7,74.26C245.47,75.61 247.9,76.98 247.64,80.52C247.35,84.47 245.16,87.1 241.88,88.91C238.5,90.77 234.76,90.97 231.02,90.66C227.55,90.37 224.32,90.55 221.3,92.64C219.41,93.95 217.25,94.85 214.76,94.55C211.63,94.17 210.49,92.73 211.3,89.65C212.58,84.79 213.96,79.96 215.07,74.96C212.64,76.77 210.84,79.08 209.88,81.98C209.07,84.4 208.48,86.9 207.8,89.36C207.64,89.92 207.56,90.51 207.34,91.03C206.3,93.41 205.28,95.89 202.11,95.95C199.09,96 197.51,94.08 196.49,91.52C194.11,85.53 191.84,79.49 188.99,73.69C187.91,71.49 188.22,69.85 190.42,68.43C192.61,67.02 194.57,65.25 196.78,63.52C190.5,62.23 189.69,61.32 189.72,54.86C189.74,51.56 188.42,48.56 188.04,45.36C187.66,42.22 188.97,41.06 191.87,42.26C195.16,43.61 198.42,45.04 201.44,46.96C206.46,50.17 206.97,53.06 203.31,57.66C202.54,58.62 201.77,59.59 200.75,60.87C203.15,59.92 205.21,59.03 207.33,58.3C210.9,57.07 214.36,57.02 217.32,59.79C220.18,62.47 220.35,65.68 218.71,69.51C219.75,69.03 220.45,68.73 221.13,68.38C225.41,66.15 229.31,67.54 233.15,69.62C236.2,71.27 239.18,73.09 242.68,74.24L242.7,74.26Z" style="fill:white;fill-rule:nonzero;"/>
            <path d="M73.68,134.56C77.88,133.43 81.85,132.29 85.84,131.19C86.79,130.93 87.78,130.72 88.76,130.65C94.04,130.3 95.63,131.58 96.55,136.73C97.36,141.24 97.77,145.73 96.59,150.26C95.59,154.08 94.5,155.2 90.64,155.9C90.88,156.7 91.59,156.36 92.07,156.48C94.28,157.01 95.43,158.21 95.43,160.66C95.43,170.02 95.59,179.37 94.95,188.72C94.79,191.05 93.61,192.37 91.47,192.98C89.45,193.56 87.36,193.57 85.3,193.5C83.44,193.44 82.74,191.8 82.25,190.32C81.31,187.5 80.56,184.61 79.67,181.78C78.49,178.06 76.98,174.49 74.62,171.33C72.7,168.76 70.25,167.05 67.03,166.62C64.74,166.32 63.66,165.1 63.84,162.77C63.91,161.86 63.88,160.95 63.92,160.04C64.11,155.8 66.24,154.18 70.53,155.16C74.49,156.07 78.41,157.02 82.53,156.9C84.26,156.85 85.92,156.51 87.61,156.11C82.86,155.09 78.02,155.02 73.22,154.77C70.28,154.61 67.5,153.92 64.71,153.14C62.65,152.56 61.59,151.02 61.12,149.06C60.21,145.19 59.33,141.32 58.53,137.43C58.04,135.06 58.87,134.26 61.3,134.43C65.35,134.72 69.4,134.89 73.69,134.56L73.68,134.56Z" style="fill:white;fill-rule:nonzero;"/>
            <path d="M104.24,87.51C108.49,78.05 113.82,69.53 120.97,62.21C128.49,54.5 136.95,48.09 146.67,43.39C148.11,42.69 149.48,42.66 150.94,43.43C168.77,52.73 183,65.65 191.58,84.14C195.62,92.85 198.13,101.92 198,111.7C197.81,126.11 197.96,140.52 198.1,154.93C198.34,179.62 198.46,204.31 199.08,228.99C199.37,240.59 198.94,252.19 199.64,263.77C199.78,266.17 198.52,266.64 196.41,266.64C178.18,266.58 159.94,266.59 141.71,266.59C128.2,266.59 114.69,266.6 101.19,266.6C97.94,266.6 97.9,266.36 97.96,263.23C98.15,253.46 98.16,243.68 98.27,233.9C98.44,217.5 98.42,201.09 98.86,184.69C99.32,167.29 99.16,149.9 99.32,132.5C99.39,124.39 99.52,116.28 99.67,108.17C99.81,101.04 101.76,94.3 104.25,87.49M195.35,135.16C195.3,133.18 195.24,131.2 195.22,129.21C195.13,121.6 195.35,113.97 194.9,106.38C194.38,97.53 191.82,89.14 187.51,81.34C178.94,65.83 166.19,54.72 150.77,46.4C149.39,45.65 148.11,45.64 146.77,46.39C141.57,49.31 136.42,52.37 131.75,56.07C122.7,63.23 115.05,71.64 109.64,81.94C105.54,89.75 102.96,98.02 102.5,106.81C102.02,115.99 102.29,125.19 102.01,134.39C101.57,148.8 101.87,163.22 101.51,177.63C101.09,194.36 101.09,211.1 100.96,227.83C100.87,238.93 100.92,250.04 100.82,261.14C100.8,263.05 101.44,263.87 103.34,263.85C106.07,263.82 108.81,263.92 111.54,263.91C126.53,263.81 141.52,263.44 156.5,263.67C168.18,263.84 179.86,263.83 191.54,263.91C196.67,263.94 196.7,263.85 196.66,258.81C196.57,248.47 196.55,238.13 196.31,227.78C196.04,216.35 196.18,204.91 196.14,193.48C196.07,174.18 196.4,154.88 195.34,135.16L195.35,135.16Z" style="fill:white;fill-rule:nonzero;"/>
            <path d="M30.05,212.23C30.66,211.97 31.1,211.78 31.98,211.4C29.42,210.55 28.93,208.73 28.81,206.69C28.69,204.63 28.51,202.56 28.4,200.5C28.28,198.29 29.48,197.25 31.57,197.31C38.69,197.52 45.8,197.86 52.92,198.03C59.03,198.17 65.1,199.39 71.24,198.77C73.06,198.59 74.12,199.33 74.13,201.26C74.13,202.09 74.16,202.92 74.09,203.74C73.69,208.45 73.06,208.84 68.32,209.02C57.76,209.42 47.17,209.41 36.45,210.96C41.97,211.85 45.69,215.52 46.84,220.96C47.86,225.76 47.97,230.47 45.83,235.06C44.21,238.53 41.55,241.13 38.8,243.61C36.81,245.41 34.28,245.1 31.98,244.12C28.94,242.81 26.48,240.82 25.06,237.68C23.32,233.82 21.8,229.9 21.1,225.71C20.29,220.93 22.21,217.32 26.07,214.63C27.29,213.78 28.61,213.08 30.04,212.25L30.05,212.23Z" style="fill:white;fill-rule:nonzero;"/>
            <path d="M204.15,261.76C204.51,257.11 203.4,252.83 202.87,248.49C202.76,247.59 202.56,246.7 202.44,245.8C201.7,240.41 202.8,239.18 208.21,239.52C211.27,239.71 214.29,240.27 217.12,241.5C221.43,243.37 223.71,246.95 224.77,251.3C226.05,256.53 225.77,261.78 224.51,267.02C223.65,270.56 222.54,274 221.19,277.38C219.34,281.99 215.56,284.44 211.15,285.95C207,287.37 202.7,287.35 198.4,286.48C193.35,285.46 190.91,280.85 192.99,276.1C194.17,273.4 196.07,271.26 198.36,269.42C200.87,267.41 203.47,265.44 204.16,261.76L204.15,261.76Z" style="fill:white;fill-rule:nonzero;"/>
            <path d="M93.43,256.13C92.12,262.24 94.84,266.35 99.24,269.8C101.26,271.38 103.1,273.18 104.31,275.52C106.67,280.1 104.64,284.96 99.68,286.3C92.69,288.2 86.18,286.78 80.26,282.86C77.11,280.78 76.39,276.98 75.06,273.72C73.24,269.26 71.93,264.54 71.88,259.75C71.83,254.42 72.04,248.98 75.92,244.55C77.9,242.29 80.43,241.24 83.17,240.61C85.57,240.05 88.05,239.73 90.51,239.53C94.08,239.23 95.6,240.81 95.2,244.4C94.86,247.43 94.28,250.44 93.8,253.46C93.67,254.27 93.55,255.09 93.41,256.13L93.43,256.13Z" style="fill:white;fill-rule:nonzero;"/>
            <path d="M272.85,113.16C271.27,117.28 269.71,121.2 268.25,125.16C267.46,127.29 266.22,128.16 263.88,127.58C261.64,127.03 259.27,127.05 257.08,126.24C254.21,125.19 253.39,123.78 253.69,120.76C253.95,118.13 254.19,115.5 254.35,112.87C254.5,110.46 255.62,108.47 257.02,106.57C253.78,103.94 251.85,100.27 248.89,97.52C247.37,96.1 245.7,94.9 244.02,93.7C242.69,92.75 242.34,91.67 243.37,90.12C246.2,85.91 249.45,82.07 253.09,78.55C254.06,77.61 255.1,77.09 256.38,78.09C258.42,79.7 260.82,80.61 263.21,81.55C266.99,83.03 267.79,84.71 266.76,88.69C265.96,91.77 263.96,94.29 262.68,97.15C261.71,99.31 260.62,101.41 259.25,104.19C261.47,102.86 262.6,101.55 263.51,100C265.79,96.16 268.06,92.32 270.35,88.48C272.1,85.54 272.92,85.16 275.43,86.07C278.06,87.03 279.23,88.84 278.64,91.67C277.48,97.26 275.93,102.75 274.28,108.22C273.8,109.8 273.36,111.39 272.84,113.17L272.85,113.16Z" style="fill:white;fill-rule:nonzero;"/>
            <path d="M80.4,72.05C80.01,71.33 79.69,70.55 79.21,69.89C77.36,67.31 76.78,64.54 78.49,61.77C80.44,58.59 83.46,57.24 87.18,57.66C90.96,58.08 94.23,59.93 97.69,61.48C95.87,60.23 94.77,58.37 93.44,56.71C90.98,53.63 91.36,50.48 94.42,48.07C98.05,45.22 102.38,43.68 106.57,41.93C108.13,41.28 109.13,42.03 109.35,43.71C109.4,44.12 109.43,44.55 109.38,44.95C108.69,49.59 107.98,54.23 107.35,58.88C106.82,62.82 104.99,63.53 99.67,62.84C101.9,65.05 104.35,66.35 106.54,67.97C109.58,70.22 109.92,70.75 108.33,74.09C105.69,79.63 103.58,85.38 101.24,91.03C100.83,92.02 100.26,92.96 99.64,93.83C97.59,96.68 93.69,96.6 91.66,93.74C90.43,92.01 89.65,90.06 89.36,88.03C88.45,81.63 84.9,76.75 80.52,72.14C80.38,72.06 80.4,72.07 80.4,72.07L80.4,72.05Z" style="fill:white;fill-rule:nonzero;"/>
            <path d="M11.67,193.03C9.72,188.48 10.01,183.79 9.56,179.2C9.1,174.49 9.06,170.16 15.76,169.25C12.38,168.21 10.98,166.31 11.81,163.32C13.02,158.99 15.49,155.66 20.07,154.56C22.31,154.02 24.65,153.72 26.96,153.66C36.15,153.42 45.34,152.81 54.55,152.87C56.91,152.89 57.88,153.79 58.01,155.97C58.01,156.14 58.06,156.3 58.07,156.46C58.64,165.54 56.87,166.12 49.02,166.64C43.64,167 38.36,168.03 32.98,168.33C29.1,168.54 25.22,168.77 21.34,168.72C20.6,168.72 19.85,168.67 18.94,169.17C22.14,172.79 22.51,176.77 20.51,181.06C19.84,182.5 20.98,183.34 21.93,184.17C23.81,185.8 26.26,186.61 28,188.46C28.95,189.47 29.87,190.55 29.46,191.93C29.05,193.31 27.57,193.05 26.46,193.14C22.59,193.47 18.71,193.74 14.84,194C13.76,194.07 12.67,194.05 11.69,193.03L11.67,193.03Z" style="fill:white;fill-rule:nonzero;"/>
            <path d="M262.88,168.14C260.84,167.95 258.99,167.94 257.23,167.55C252.85,166.56 248.33,167.22 243.96,166.19C240.83,165.46 239.61,164.12 239.42,160.91C239.113,155.643 241.597,152.99 246.87,152.95C255.82,152.9 264.75,153.3 273.66,154.01C278.2,154.37 282.08,155.91 284.51,160.32C286.85,164.55 286.31,167.02 281.73,169.01C282.78,170.01 284.1,170.26 285.27,170.73C287.03,171.43 287.91,172.68 287.95,174.52C288.07,179.92 287.41,185.27 286.77,190.6C286.55,192.45 285.42,194.14 283.16,194.02C278.87,193.79 274.57,193.51 270.3,193.04C267.83,192.76 267.4,191.35 268.87,189.25C269.85,187.85 271.36,187.09 272.71,186.13C273.86,185.31 275.05,184.57 276.17,183.72C277,183.09 277.54,182.29 277.04,181.14C275.19,176.94 275.32,172.95 278.85,168.97C273.27,168.46 268.15,168.85 262.88,168.16L262.88,168.14Z" style="fill:white;fill-rule:nonzero;"/>
            <path d="M241.73,249.29C238.38,251.84 235.54,254.82 231.85,256.58C229.07,257.9 227.94,257.25 227.39,254.17C227.05,252.3 226.76,250.4 226.72,248.51C226.65,244.87 227.79,241.98 231.56,240.41C233.87,239.45 235.88,237.78 238.47,236.14C236.11,235.93 234.68,237.04 233.12,237.54C227.75,239.24 221.65,235.23 221.59,229.51C221.55,225.5 221.7,221.38 223.22,217.56C224.41,214.57 227.08,213.06 229.88,211.97C234.26,210.27 238.69,209.1 243.24,211.72C245.29,212.9 246.54,214.4 246.69,216.77C247.02,221.98 245.22,226.88 244.4,231.92C244.19,233.19 243.03,233.7 241.38,234.35C245,234.78 246.04,237.02 246.56,239.73C247.16,242.91 246.57,245.62 243.78,247.6C243.11,248.08 242.49,248.64 241.72,249.27L241.73,249.29Z" style="fill:white;fill-rule:nonzero;"/>
            <path d="M53.51,235.17C54.16,234.82 54.69,234.58 55.48,234.21C53.48,233.13 52.93,231.29 52.58,229.33C52.03,226.23 51.49,223.14 50.86,220.06C49.32,212.53 55.58,209.94 61.08,210.23C64.03,210.39 66.9,211.47 69.58,212.83C72.3,214.21 74.28,216.31 74.8,219.37C75.48,223.34 76.43,227.36 75.55,231.39C74.47,236.29 68.95,239.12 64.25,237.48C62.63,236.92 61.14,235.94 58.92,235.8C60.74,237.72 62.75,238.67 64.69,239.75C66.89,240.97 69.68,241.72 70.34,244.59C71.22,248.45 71.01,252.36 69.65,256.08C68.97,257.96 67.06,257.61 65.82,256.81C60.52,253.39 55.77,249.25 51.38,244.74C49.55,242.86 50.78,238.03 53.5,235.16L53.51,235.17Z" style="fill:white;fill-rule:nonzero;"/>
            <path d="M61.06,132.32C54.37,132.5 51.2,128.47 49.03,123.14C46.75,117.55 45.83,111.7 45.61,105.72C45.59,105.15 45.69,104.57 45.8,104C46.19,101.86 46.5,99.55 49.16,99.06C51.72,98.58 53.35,100.27 54.71,102.09C56.58,104.61 58.01,107.42 60.19,109.74C62.54,112.24 65.68,112.62 68.75,113.14C71.19,113.56 73.68,113.7 76.12,114.13C81.39,115.06 85.05,123.25 82.31,127.87C81.72,128.87 80.68,129.25 79.63,129.52C73.61,131.05 67.52,132.16 61.06,132.33L61.06,132.32Z" style="fill:white;fill-rule:nonzero;"/>
            <path d="M215.89,118.15C217.45,115.51 219.66,114.34 222.49,114.04C225.28,113.74 228.03,113.07 230.81,112.84C234.47,112.54 236.87,110.53 238.83,107.7C240.29,105.59 241.77,103.5 243.3,101.45C244.55,99.78 246.12,98.56 248.36,99.09C250.58,99.62 251.28,101.49 251.42,103.44C252.07,112.49 250.54,121.06 245.37,128.72C243.31,131.78 239.95,132.09 236.75,132.24C230.49,132.53 224.41,131.11 218.39,129.64C214.94,128.8 214.25,127.39 214.47,123.83C214.59,121.91 215.03,120.08 215.87,118.15L215.89,118.15Z" style="fill:white;fill-rule:nonzero;"/>
            <path d="M109.13,55.17C110.8,49.68 112.25,44.33 114.15,39.13C115.8,34.59 119.88,32.13 123.72,29.73C125.86,28.39 128.38,27.55 130.84,26.85C133.75,26.02 136.55,26.55 139.07,28.42C142.12,30.7 144.04,33.75 145.03,37.31C145.6,39.38 144.35,40.95 142.54,41.99C136.29,45.6 130.44,49.78 124.77,54.23C120.67,57.45 116.61,60.72 113.3,64.81C112.72,65.53 112.09,66.25 111.01,65.91C110.09,65.62 109.87,64.82 109.69,63.97C109.1,61.13 108.53,58.29 109.14,55.16L109.13,55.17Z" style="fill:white;fill-rule:nonzero;"/>
            <path d="M178.78,33.3C182.19,36.01 184,39.48 184.78,43.5C185.26,45.96 185.89,48.37 186.98,50.59C189.17,55.05 188.64,59.62 187.8,64.2C187.41,66.3 185.93,66.68 184.46,65.04C175.96,55.56 165.6,48.46 154.81,41.91C153.39,41.05 152.4,39.92 152.4,38.13C152.38,31.56 160.59,25.12 166.91,26.86C170.45,27.84 173.71,29.46 176.65,31.69C177.31,32.19 177.97,32.69 178.77,33.3L178.78,33.3Z" style="fill:white;fill-rule:nonzero;"/>
            <path d="M237.78,168.15C239.89,167.9 241.78,167.68 243.68,167.5C246.61,167.23 247.56,167.95 248.39,170.85C249.24,173.83 249.16,176.92 249.46,179.96C249.77,183.16 249.6,186.41 249.6,189.64C249.6,191.58 248.56,192.71 246.7,193.12C246.14,193.25 245.56,193.4 244.99,193.4C236.96,193.31 228.95,194.32 220.91,194.03C217.85,193.92 217.43,193.15 218.17,190.17C219.54,184.69 221.68,179.54 224.22,174.52C226.13,170.73 229.29,169.02 233.37,168.67C234.77,168.55 236.17,168.36 237.78,168.15Z" style="fill:white;fill-rule:nonzero;"/>
            <path d="M54.36,167.68C58.19,168.12 61.81,168.52 65.42,168.9C68.83,169.26 71.25,171.09 72.93,173.98C76.08,179.39 77.91,185.33 79.7,191.27C80.28,193.2 79.13,194.02 77.28,194.01C73.47,193.99 69.64,194.21 65.85,193.88C61.88,193.53 57.92,193.58 53.95,193.52C48.99,193.44 47.99,192.38 47.95,187.53C47.91,182.23 48.14,176.94 48.93,171.69C49.42,168.46 50.96,167.25 54.36,167.68Z" style="fill:white;fill-rule:nonzero;"/>
            <path d="M220.25,222.8C220.47,227.16 220.71,231.29 220.86,235.43C220.96,238.04 220.16,238.77 217.61,238.33C214.11,237.73 210.61,237.09 207.15,236.3C204.19,235.63 202.85,233.57 202.9,230.52C203.01,223.49 203,216.46 203.14,209.43C203.22,205.55 203.45,201.66 203.71,197.78C203.9,194.93 204.8,194.28 207.59,194.97C210.23,195.63 212.85,196.37 215.41,197.35C218.25,198.44 219.53,200.31 219.89,203.25C220.35,206.99 219.6,210.68 219.74,214.41C219.84,217.14 219.76,219.87 220.24,222.8L220.25,222.8Z" style="fill:white;fill-rule:nonzero;"/>
            <path d="M253.54,238.06C249.53,232.91 249.8,227.21 250.47,221.34C251.55,211.89 262.6,208.31 269.65,213.53C272.35,215.53 275.01,217.35 276.06,220.78C277.1,224.17 275.93,227.33 275.17,230.52C274.72,232.43 273.9,234.27 273.2,236.12C271.71,240.05 269,242.83 265.07,244.29C262.42,245.27 259.85,245.17 257.79,242.84C256.42,241.29 255.04,239.75 253.54,238.08L253.54,238.06Z" style="fill:white;fill-rule:nonzero;"/>
            <path d="M93.96,199.89C94.79,210.45 94.31,220.81 94.44,231.16C94.48,233.91 93.06,235.64 90.37,236.23C87.06,236.96 83.73,237.63 80.41,238.31C77.66,238.87 76.73,238.21 76.8,235.31C76.93,229.69 77.13,224.06 77.5,218.45C77.68,215.71 77.81,213.01 77.49,210.28C77.16,207.47 77.41,204.66 77.75,201.86C77.97,200.08 78.86,198.77 80.53,198.04C83.34,196.81 86.18,195.69 89.22,195.13C92.88,194.46 93.15,194.59 93.8,198.19C93.89,198.68 93.9,199.18 93.96,199.9L93.96,199.89Z" style="fill:white;fill-rule:nonzero;"/>
            <path d="M80.38,72.02C83.13,77.52 84.57,83.45 86.07,89.37C86.97,92.91 85.02,95.23 81.32,94.62C79.26,94.28 77.32,93.46 75.61,92.3C73.27,90.71 70.71,90.18 68.05,90.63C65.54,91.05 63.11,90.8 60.65,90.54C55.89,90.03 52.49,87.47 50.46,83.22C48.76,79.65 50.35,75.81 54.03,74.5C57.72,73.19 61.02,71.15 64.52,69.47C68.18,67.72 71.86,65.94 76.05,68.28C77.71,69.21 78.85,70.56 80.25,71.95C80.39,72.04 80.38,72.03 80.37,72.02L80.38,72.02Z" style="fill:white;fill-rule:nonzero;"/>
            <path d="M90.38,47.77C90.39,48.91 90.41,49.82 90.38,50.73C90.33,52.54 89.36,53.38 87.63,54.03C80.24,56.78 74.12,53.31 67.86,50.33C66.84,49.84 66.61,48.88 66.53,47.64C66.15,47.91 65.87,48.04 65.68,48.26C61.4,53.2 55.74,54.12 49.66,53.71C47.55,53.57 45.51,53.18 44.45,50.98C43.37,48.73 44.12,46.85 45.56,45.03C47.88,42.1 50.37,39.34 53.17,36.87C56.74,33.7 63.92,33.26 68.08,35.81C69.52,36.7 69.55,37.83 69.08,39.22C68.35,41.39 67.23,43.45 67.08,46.11C68.66,45.61 69.55,44.51 70.67,43.79C74.66,41.26 78.93,39.23 83.22,37.29C86.58,35.77 87.56,36.48 88.72,40.05C89.52,42.5 90.06,44.99 90.38,47.76L90.38,47.77Z" style="fill:white;fill-rule:nonzero;"/>
            <path d="M20.11,96.93C19.62,94.96 19.13,93.21 18.75,91.43C18.19,88.8 19.23,87.43 22.05,86.13C24.51,85 25.69,86.25 26.9,88.07C29.88,92.55 31.98,97.56 35.28,101.84C36.33,103.21 37.53,104.53 38.9,105.57C41.5,107.57 42.92,110.08 43.17,113.33C43.34,115.55 43.61,117.77 43.79,119.99C44.14,124.3 42.57,126.21 38.22,126.83C36.75,127.04 35.21,127.08 33.82,127.54C31.24,128.39 29.87,127.29 29.04,125.03C27.33,120.37 25.48,115.75 23.97,111.03C22.51,106.46 21.41,101.78 20.11,96.94L20.11,96.93Z" style="fill:white;fill-rule:nonzero;"/>
            <path d="M225.53,208.68C223.48,206.77 222.65,202.3 223.71,200.11C224.16,199.17 224.85,198.77 225.87,198.77C238.88,198.86 251.83,197.31 264.84,197.31C268.58,197.31 269.06,197.83 269.04,201.68C269.04,203.76 268.9,205.81 268.57,207.86C268.23,209.99 267.18,211.11 264.89,210.94C259.53,210.53 254.16,210.12 248.79,209.84C241.68,209.47 234.57,209.23 227.46,208.93C226.88,208.91 226.31,208.82 225.53,208.68Z" style="fill:white;fill-rule:nonzero;"/>
            <path d="M17.94,147.85C13.21,149.3 12.31,148.66 11.57,143.94C10.94,139.95 10.33,135.93 9.32,132.03C8.23,127.84 9.41,124.65 12.83,122.31C20.41,117.13 20.72,117.79 25.17,124.14C26.88,126.57 29,128.84 30.12,131.52C31.74,135.4 32.6,139.64 30.45,143.7C29.24,145.98 26.76,146.32 24.47,146.69C22.35,147.04 20.19,147.12 17.94,147.85Z" style="fill:white;fill-rule:nonzero;"/>
            <path d="M287.3,136.12C286.74,139.34 286.26,142.35 285.68,145.35C285.1,148.32 284.02,149.06 281.21,148.24C277.94,147.29 274.58,146.9 271.26,146.26C267.62,145.57 265.82,142.57 265.86,138.86C265.94,130.92 271.38,125.94 275.58,120.26C276.55,118.95 278.09,118.65 279.61,119.38C282.38,120.72 284.96,122.31 286.98,124.71C288.59,126.61 288.58,128.8 288.26,131.04C288.03,132.67 287.65,134.28 287.3,136.11L287.3,136.12Z" style="fill:white;fill-rule:nonzero;"/>
            <path d="M224.56,271.98C226.34,268.51 227.01,264.6 229.61,261.86C235.12,256.05 241.04,250.63 247.17,245.48C250.17,242.96 252.54,243.3 255.34,246.22C257.6,248.58 257.54,250.34 255.02,253.4C249.56,260.01 243.28,265.76 236.49,270.95C233.34,273.36 230.35,275.99 226.92,278.01C226.21,278.43 225.5,278.85 224.76,279.2C224.06,279.53 223.33,279.63 222.66,279.06C221.87,278.38 222.41,277.73 222.67,277.05C223.29,275.43 223.88,273.79 224.55,271.98L224.56,271.98Z" style="fill:white;fill-rule:nonzero;"/>
            <path d="M255.18,67.35C256.95,69.44 258.6,71.41 260.25,73.37C260.95,74.2 261.81,75.02 260.99,76.19C260.25,77.26 259.17,77.15 258.08,76.8C250.05,74.23 242.07,71.5 234.56,67.61C230.3,65.4 226,63.26 222.15,60.36C221.56,59.91 220.92,59.49 220.45,58.93C218.98,57.16 219.51,55.36 221.75,55.15C227.51,54.6 233.21,53.42 239.03,53.53C240.94,53.57 242.49,54.21 243.84,55.66C247.51,59.58 251.67,63.03 255.17,67.37L255.18,67.35Z" style="fill:white;fill-rule:nonzero;"/>
            <path d="M77.89,57.05C77.52,59.07 76.05,59.91 74.68,60.84C64.78,67.54 53.94,72.2 42.56,75.7C41.45,76.04 40.36,76.42 39.25,76.77C38.25,77.08 37.27,77.16 36.55,76.19C35.77,75.14 36.43,74.29 37.06,73.52C41,68.71 45.08,64.03 49.6,59.75C50.56,58.84 51.61,57.97 52.39,56.92C54.84,53.6 58.22,53.19 61.94,53.6C66.38,54.09 70.82,54.56 75.27,55.03C76.5,55.16 77.56,55.49 77.89,57.07L77.89,57.05Z" style="fill:white;fill-rule:nonzero;"/>
            <path d="M67.39,261.12C70.28,264.19 70.93,268.18 72.62,271.66C73.41,273.29 73.89,275.07 74.5,276.78C74.77,277.53 75.35,278.32 74.52,279.06C73.64,279.85 72.77,279.29 72.01,278.84C68.44,276.73 65.11,274.27 61.92,271.63C55.8,266.56 49.52,261.65 44.3,255.6C43.44,254.6 42.62,253.55 41.84,252.49C40.38,250.52 40.35,248.55 41.91,246.58C43.57,244.49 46.14,243.37 48.17,244.08C50.03,244.72 51.31,246.26 52.64,247.56C57.38,252.2 62.4,256.52 67.4,261.12L67.39,261.12Z" style="fill:white;fill-rule:nonzero;"/>
            <path d="M277.09,83.45C272.44,84.36 269.31,82.58 266.73,79.01C261.75,72.11 256.54,65.37 251.52,58.5C249.24,55.38 249.68,54.35 253.35,53.41C253.51,53.37 253.68,53.35 253.82,53.27C258.56,50.54 261.85,52.54 264.83,56.37C270.36,63.48 275.97,70.54 279.71,78.82C280.95,81.57 280.33,82.58 277.08,83.44L277.09,83.45Z" style="fill:white;fill-rule:nonzero;"/>
            <path d="M19.63,83.32C17.25,82.47 16.8,81.05 17.68,78.94C20.28,72.67 24.43,67.37 28.32,61.92C30.39,59.02 32.64,56.26 35.16,53.72C37,51.87 39.01,51.3 41.47,52.48C42.51,52.98 43.64,53.29 44.75,53.61C47.62,54.44 48.07,55.6 46.25,58.08C42.97,62.56 39.62,66.98 36.29,71.43C34.51,73.82 32.5,76.08 31,78.63C28.39,83.09 24.6,84.26 19.62,83.31L19.63,83.32Z" style="fill:white;fill-rule:nonzero;"/>
            <path d="M16.27,116.19C13.24,120.72 8.68,122.99 4.28,125.43C2.7,126.3 2.09,125.07 1.64,123.8C0.39,120.33 0.69,116.77 1.19,113.25C2.25,105.83 4.15,98.68 8.5,92.42C9.52,90.95 10.72,88.93 12.49,89.11C14.39,89.31 15.01,91.73 15.36,93.37C16.65,99.49 18.23,105.6 17.43,111.97C17.25,113.38 16.93,114.73 16.28,116.19L16.27,116.19Z" style="fill:white;fill-rule:nonzero;"/>
            <path d="M285.58,89.04C288,90.54 289.53,92.65 290.65,94.94C294.6,103.07 297.12,111.56 296.45,120.74C296.41,121.32 296.37,121.9 296.25,122.46C295.52,125.78 294.66,126.17 291.69,124.52C289.88,123.52 288.07,122.51 286.36,121.36C281.53,118.12 279.44,113.53 279.92,107.76C280.29,103.4 280.74,99.03 281.78,94.79C282.33,92.56 282.38,89.75 285.59,89.04L285.58,89.04Z" style="fill:white;fill-rule:nonzero;"/>
            <path d="M251.45,176.6C252.62,171.67 254.17,170.27 258.93,169.98C260.85,169.86 262.47,168.77 264.46,168.81C269.46,168.9 272.03,170.97 273.06,175.9C273.73,179.07 273.26,181.67 270.69,183.95C267.97,186.36 265.54,189.09 262.96,191.65C261.95,192.65 260.78,192.94 259.33,192.65C253.9,191.56 250.99,187.91 250.91,181.74C250.89,180.1 251.23,178.46 251.44,176.6L251.45,176.6Z" style="fill:white;fill-rule:nonzero;"/>
            <path d="M91.69,97.3C93.85,98.31 94.76,100.09 95.32,102.01C97.47,109.42 97.55,117.02 97.27,124.64C97.17,127.37 96.12,128.23 93.32,128.35C91.5,128.43 89.68,128.37 87.86,128.38C85.48,128.4 84.4,126.91 84.14,124.84C83.27,117.78 82.66,110.7 82.84,103.58C83,97.25 85.18,95.61 91.69,97.3Z" style="fill:white;fill-rule:nonzero;"/>
            <path d="M36.5,169.63C37.27,169.8 37.84,169.9 38.42,169.95C43.27,170.37 44.95,171.81 45.92,176.65C46.46,179.32 46.93,182 46.32,184.77C45.32,189.29 41.65,192.51 37.08,192.78C36.07,192.84 35.35,192.45 34.67,191.76C31.71,188.75 28.74,185.75 25.75,182.78C24.49,181.53 23.92,180.02 24.03,178.29C24.22,175.42 25.02,172.56 27,170.57C29.62,167.94 33.03,168.44 36.49,169.63L36.5,169.63Z" style="fill:white;fill-rule:nonzero;"/>
            <path d="M39.03,79.41C42.83,76.97 42.95,76.99 46,80.17C49.04,83.34 51.76,86.75 54.2,90.41C55.07,91.72 54.96,92.75 53.66,93.55C49.18,96.28 45.95,100.24 42.82,104.33C41.35,106.25 39.68,106.4 38.69,104.46C35.98,99.18 32.7,94.15 30.81,88.48C29.5,84.54 30.46,82.88 34.33,81.44C35.87,80.86 37.53,80.55 39.03,79.42L39.03,79.41Z" style="fill:white;fill-rule:nonzero;"/>
            <path d="M201,126.92C200.66,126.13 200.25,125.52 200.24,124.9C200.16,116.81 199.69,108.68 202.65,100.88C204.08,97.11 210.06,95.33 213.31,97.78C214.12,98.39 214.28,99.25 214.37,100.18C215.11,107.97 214.34,115.71 213.6,123.44C213.18,127.82 212.35,128.45 207.91,128.35C205.62,128.3 203.06,129.22 201,126.91L201,126.92Z" style="fill:white;fill-rule:nonzero;"/>
            <path d="M88.17,21.94C86.87,18.49 87.32,17.46 90.59,16.04C95.51,13.91 97.61,14.56 100.44,19.15C102.01,21.68 103.53,24.24 105.1,26.77C107.18,30.14 106.3,33.64 105.52,37.11C105.28,38.18 104.42,38.92 103.35,39.35C100.21,40.62 97.1,41.97 93.93,43.19C91.72,44.04 90.57,43.52 90.14,41.16C89.5,37.59 88.96,33.93 89.4,30.33C89.76,27.41 89.27,24.76 88.15,21.93L88.17,21.94Z" style="fill:white;fill-rule:nonzero;"/>
            <path d="M191.63,28.36C193.44,24.5 195.75,21.16 197.85,17.71C200.16,13.93 207.47,14.11 209.62,17.96C210.33,19.24 210,20.58 209.35,21.76C207.79,24.58 207.8,27.56 207.95,30.67C208.1,34.04 207.95,37.43 207.7,40.8C207.53,43.17 205.83,44.13 203.67,43.29C200.82,42.19 198.01,40.99 195.15,39.9C192.94,39.05 191.65,37.65 191.44,35.17C191.25,32.94 190.86,30.75 191.63,28.36Z" style="fill:white;fill-rule:nonzero;"/>
            <path d="M230.62,46.68C230.29,44.12 229.46,41.7 228.46,39.33C227.61,37.32 228.21,35.91 230.3,35.29C235.65,33.69 240.8,33.11 245.24,37.69C247.89,40.42 250.71,43 252.67,46.29C254.66,49.62 253.38,52.72 249.59,53.35C242.23,54.56 235.58,53.36 230.71,46.78C230.6,46.67 230.62,46.69 230.62,46.69L230.62,46.68Z" style="fill:white;fill-rule:nonzero;"/>
            <path d="M54.69,145.64C54.6,147.45 53.71,148.63 52.25,148.93C47.95,149.81 43.63,150.41 39.33,148.72C37.11,147.85 36.08,146.26 36.02,143.99C35.96,141.76 36.02,139.53 36,137.3C35.96,131.05 39.29,128.94 45.67,128.87C45.83,128.87 46,128.93 46.16,128.95C53.98,130.13 54.39,130.51 54.7,138.28C54.79,140.66 55.21,143.05 54.68,145.64L54.69,145.64Z" style="fill:white;fill-rule:nonzero;"/>
            <path d="M256.47,149.36C252.8,150.04 249.34,149.84 245.9,149.17C244.19,148.83 243.13,147.73 242.89,145.96C242.3,141.58 243.08,137.21 243.04,132.83C243.03,131.57 244.09,130.93 245.11,130.6C249.03,129.34 252.92,127.87 257.15,129.66C259.35,130.6 260.67,131.97 261.06,134.33C261.52,137.13 261.51,139.94 261.47,142.75C261.42,146.67 260.49,147.89 256.46,149.35L256.47,149.36Z" style="fill:white;fill-rule:nonzero;"/>
            <path d="M6.61,180.08C4.96,181.31 4.21,180.4 3.67,179.09C2.31,175.76 1.95,172.21 1.37,168.71C-0.08,160.01 -0.19,151.25 0.19,142.47C0.28,140.47 1.28,139.62 3.38,139.6C8.55,139.54 9.42,140.22 9.95,145.35C10.37,149.46 10.82,153.58 11.25,157.69C11.59,161 10.56,164.11 9.6,167.17C8.45,170.82 7.64,174.51 7.28,178.31C7.23,178.87 6.92,179.4 6.61,180.08Z" style="fill:white;fill-rule:nonzero;"/>
            <path d="M294.16,139.65C296.79,139.58 297.26,141.23 297.31,143.1C297.57,152.62 297.39,162.11 295.6,171.51C295.15,173.86 294.93,176.27 294.06,178.51C293.69,179.46 293.37,180.73 291.94,180.51C290.74,180.32 290.5,179.24 290.39,178.24C289.8,173.04 288.36,168.03 286.78,163.07C285.63,159.45 286.56,155.84 286.73,152.23C286.85,149.76 287.12,147.29 287.52,144.84C288.25,140.3 289.22,139.57 294.16,139.65Z" style="fill:white;fill-rule:nonzero;"/>
            <path d="M115.09,23.59C119.23,22.1 123.15,20.55 127.17,19.33C130.94,18.18 133.72,15.99 135.74,12.65C137.43,9.86 141.86,8.74 144.68,10.29C145.76,10.89 145.8,11.91 145.36,12.88C144.07,15.74 142.71,18.57 141.38,21.41C140.82,22.62 139.64,22.88 138.55,23.21C132.78,24.97 127.08,26.93 121.57,29.42C118.38,30.86 115.49,32.74 112.77,34.93C112.02,35.53 111.22,36.34 110.11,35.82C108.87,35.24 109.08,34.04 109.16,32.99C109.45,28.89 110.12,25 115.08,23.59L115.09,23.59Z" style="fill:white;fill-rule:nonzero;"/>
            <path d="M179.37,31.25C173.37,27.99 167.2,25.63 160.82,23.86C157.81,23.02 155.6,21.74 154.77,18.44C154.29,16.55 153.13,14.84 152.28,13.05C151.69,11.8 151.91,10.8 153.25,10.2C156.42,8.77 160.23,9.97 161.96,13.05C163.77,16.28 166.61,18.12 169.99,19.29C174.36,20.8 178.79,22.14 183.09,23.89C186.25,25.17 187.92,27.16 187.98,30.56C188,31.46 188.26,32.35 188.36,33.25C188.45,34.15 188.63,35.15 187.7,35.73C186.69,36.36 185.76,35.88 184.99,35.2C183.31,33.71 181.46,32.47 179.38,31.24L179.37,31.25Z" style="fill:white;fill-rule:nonzero;"/>
            <path d="M79.56,99.82C80.49,101.33 80.99,102.82 81.31,104.36C81.74,106.42 81.05,108.12 79.38,109.37C76.97,111.19 74.29,112.42 71.26,112.79C67.66,113.23 61.79,109.16 60.63,105.21C59.82,102.47 58.83,99.69 60.3,96.8C61.72,94.02 64.92,92.19 67.88,93.05C72.23,94.31 76.7,95.53 79.56,99.81L79.56,99.82Z" style="fill:white;fill-rule:nonzero;"/>
            <path d="M216.17,104.47C217.21,99.15 220.22,95.9 225.24,94.52C228.04,93.76 230.63,91.99 233.81,93.57C235.97,94.64 237.19,96.24 237.62,98.42C238.86,104.64 234.1,111.51 227.83,112.72C222.94,113.67 216.32,109.12 216.16,104.47L216.17,104.47Z" style="fill:white;fill-rule:nonzero;"/>
            <path d="M230.59,46.65C231.28,48.76 230.56,50.09 228.45,50.88C226.44,51.63 224.44,52.46 222.57,53.49C218.29,55.85 213.99,54.97 209.62,53.89C207.89,53.46 207.19,52.41 207.04,50.74C206.63,46.32 208.13,42.23 209.34,38.14C209.93,36.12 211.91,36.31 213.54,37.06C219.39,39.74 225.36,42.24 230.47,46.59C230.61,46.68 230.6,46.66 230.59,46.65Z" style="fill:white;fill-rule:nonzero;"/>
            <path d="M182.69,20.48C179.31,19.29 176.1,18.23 172.95,17C170.26,15.94 170.15,15.21 171.73,12.88C172.74,11.38 173.59,9.77 173.87,7.92C174.14,6.07 175.27,5.19 177.13,5.25C182.7,5.42 187.8,7.24 192.69,9.76C193.62,10.24 194.17,11.09 194.43,12.08C194.62,12.79 194.85,13.56 194.77,14.27C194.03,21.42 192.23,24.34 184.72,21.26C184.11,21.01 183.49,20.77 182.69,20.48Z" style="fill:white;fill-rule:nonzero;"/>
            <path d="M102.91,12.25C103.37,10.9 104.17,10.03 105.23,9.52C109.72,7.39 114.31,5.57 119.37,5.22C121.75,5.05 123.13,5.87 123.67,8.25C124.12,10.19 124.84,12.02 126.21,13.57C127.26,14.76 126.98,15.96 125.53,16.58C120.13,18.91 114.6,20.93 108.9,22.35C106.25,23.01 104.6,21.86 103.72,19.28C102.97,17.09 102.49,14.81 102.9,12.26L102.91,12.25Z" style="fill:white;fill-rule:nonzero;"/>
            <path d="M20.75,213.25C20.04,214.58 19.51,215.82 18.75,216.89C17.13,219.15 15,219 13.71,216.52C13.15,215.44 12.87,214.2 12.5,213.02C11.29,209.24 10.04,205.47 8.9,201.67C7.92,198.4 8.7,197.3 12.07,196.77C15.33,196.26 18.63,196.09 21.89,195.39C25.12,194.7 25.97,195.65 25.31,198.91C24.33,203.79 22.55,208.43 20.76,213.25L20.75,213.25Z" style="fill:white;fill-rule:nonzero;"/>
            <path d="M288.85,200.31C287.33,205.41 285.87,210.32 284.29,215.19C283.85,216.55 283.4,218.22 281.53,218.32C279.69,218.42 278.69,217.07 278,215.63C275.24,209.88 273.25,203.85 271.88,197.62C271.49,195.87 272.47,195.08 274.11,195.29C278.28,195.82 282.45,196.4 286.61,197.07C288.18,197.33 289.04,198.41 288.85,200.31Z" style="fill:white;fill-rule:nonzero;"/>
            <path d="M227.21,33.33C221.79,34.65 216.49,34.31 211.21,34.3C209.11,34.3 208.3,33.35 208.93,31.32C210.01,27.86 211.07,24.38 212.25,20.95C212.87,19.14 214.38,18.76 215.85,19.68C220.96,22.87 226.54,25.27 231.33,28.98C232.17,29.63 233.31,30.19 232.97,31.49C232.59,32.92 231.26,32.79 230.11,32.9C229.21,32.99 228.31,33.16 227.2,33.33L227.21,33.33Z" style="fill:white;fill-rule:nonzero;"/>
            <path d="M72.83,24.63C75.8,22.98 78.6,21.39 81.45,19.87C83.52,18.77 84.65,19.27 85.38,21.52C86.43,24.73 87.48,27.95 88.53,31.16C89.25,33.37 88.67,34.22 86.32,34.34C79.6,34.7 72.97,33.9 66.36,32.8C65.51,32.66 64.73,32.33 64.51,31.39C64.32,30.55 64.81,29.93 65.44,29.5C67.83,27.88 70.25,26.31 72.82,24.62L72.83,24.63Z" style="fill:white;fill-rule:nonzero;"/>
            <path d="M152.66,275C152.6,282.27 152.94,289.3 152.13,296.31C151.8,299.2 151.32,299.87 148.83,299.86C146.4,299.86 145.53,298.98 145.41,296.36C145.04,288.45 143.97,280.55 144.88,272.6C145.27,269.17 145.8,268.46 148.76,268.48C151.51,268.5 152.47,269.55 152.63,272.77C152.66,273.43 152.65,274.09 152.66,275Z" style="fill:white;fill-rule:nonzero;"/>
            <path d="M151.13,15.69C152.49,17.88 153.71,19.95 155.05,21.93C156.48,24.05 156.39,26.09 155.09,28.19C153.57,30.65 152.08,33.13 150.55,35.58C149.39,37.44 148.13,37.48 146.99,35.63C145.25,32.82 143.58,29.97 141.9,27.12C141.01,25.62 141.29,24.17 142.04,22.65C143.69,19.32 146.21,16.5 147.57,12.98C148.13,11.53 149.22,11.8 149.94,13.05C150.39,13.83 150.69,14.7 151.14,15.7L151.13,15.69Z" style="fill:white;fill-rule:nonzero;"/>
            <path d="M140.4,8.58C136.98,9.47 133.94,10.74 130.96,12.21C127.45,13.94 125.79,13.04 124.92,9.22C123.88,4.66 125.36,2.24 129.86,1.25C134.33,0.27 138.91,0.37 143.44,0.02C145.55,-0.14 146.99,0.77 146.69,3.25C146.62,3.82 146.69,4.41 146.67,4.99C146.62,7.71 146.01,8.37 143.34,8.51C142.43,8.56 141.52,8.55 140.4,8.59L140.4,8.58Z" style="fill:white;fill-rule:nonzero;"/>
            <path d="M168.17,12.86C167.14,12.45 166.3,12.1 165.47,11.72C161.78,10.05 158.15,8.24 153.9,8.46C151.8,8.57 150.82,7.53 150.84,5.26C150.88,-0.18 150.93,-0.29 156.44,0.19C160.31,0.53 164.23,0.52 168.05,1.28C172.31,2.13 174.43,8.77 171.56,12.05C170.68,13.05 169.56,13.1 168.17,12.86Z" style="fill:white;fill-rule:nonzero;"/>
            <path d="M294.78,126.87C295.49,126.83 296.05,126.87 296.33,127.31C297.85,129.74 297.67,132.4 296.9,134.93C296.19,137.26 293.95,137.88 291.8,138.25C290.52,138.47 289.77,137.83 289.67,136.48C289.55,134.67 289.33,132.86 289.29,131.05C289.22,128.3 290.08,127.39 292.86,127.08C293.43,127.02 294.01,126.95 294.78,126.87Z" style="fill:white;fill-rule:nonzero;"/>
            <path d="M7.86,136.05C7.75,138.09 6.58,138.44 5.08,138.22C2.02,137.78 0.25,135.74 0.19,132.64C0.19,132.31 0.19,131.98 0.18,131.65C-0.04,125.56 1.78,126.72 6.21,127.34C7.97,127.59 8.21,129.17 8.19,130.62C8.17,132.36 7.99,134.09 7.87,136.04L7.86,136.05Z" style="fill:white;fill-rule:nonzero;"/>
            <path d="M195.33,247.6C195.53,251.82 195.07,255.8 195.68,259.76C196.01,261.87 194.74,262.53 192.84,262.52C188.21,262.49 183.57,262.48 178.93,262.48C167.25,262.48 155.57,262.54 143.88,262.51C133.78,262.49 123.67,262.37 113.57,262.34C110.92,262.34 108.28,262.48 105.63,262.56C103.62,262.62 102.62,261.92 102.69,259.65C103.28,241.84 102.93,224.02 103.37,206.21C103.64,195.27 103.45,184.34 103.76,173.4C104.36,152.52 103.71,131.63 104.32,110.76C104.69,98.23 109.5,86.9 116.44,76.53C122.07,68.12 129.11,61.03 137.38,55.22C140.35,53.13 143.57,51.39 146.68,49.48C148.24,48.52 149.68,48.57 151.34,49.47C169.32,59.27 182.58,73.3 189.94,92.55C192.49,99.23 193.96,106.19 193.92,113.41C193.87,123.19 193.69,132.98 193.98,142.75C194.46,159.07 194.19,175.39 194.55,191.71C194.8,203.22 194.82,214.74 194.97,226.25C195.06,233.28 195.2,240.31 195.32,247.58M192.28,219C192.07,201.6 192.3,184.2 191.89,166.8C191.48,149.32 191.37,131.84 191.27,114.36C191.21,103.01 188.54,92.38 182.74,82.65C174.97,69.62 164.36,59.52 150.87,52.47C149.53,51.77 148.51,51.72 147.19,52.42C138.16,57.23 130.35,63.53 123.67,71.26C113.67,82.84 107.56,96.1 106.97,111.52C106.55,122.44 106.86,133.39 106.45,144.32C106.02,155.58 106.07,166.86 106.04,178.12C105.95,203.97 105.47,229.82 105.4,255.68C105.39,259.5 105.4,259.49 109.18,259.49L188.74,259.49C192.39,259.49 192.7,259.24 192.66,255.53C192.53,243.52 192.81,231.51 192.29,219.01L192.28,219Z" style="fill:white;fill-rule:nonzero;"/>
            <g>
                <path d="M139.41,287.97C139.08,287.85 138.75,287.72 138.45,287.59C134.79,286.15 130.6,286.83 126.83,285.7C125.04,285.17 123.08,284.12 121.6,282.71C121.02,282.28 120.49,281.77 120,281.15C118.17,278.82 116.53,276.26 113.9,274.68C110.97,272.93 108.73,273.91 108.14,277.23C107.33,281.83 107.43,286.45 108.02,291.08C108.2,292.51 108.85,293.28 110.14,293.8C118.25,297.07 126.64,299.19 135.36,299.87C140.15,300.24 141.76,298.8 142.18,293.99C142.27,293.01 142.11,292.01 141.98,290.84C141.31,289.73 140.52,288.86 139.41,287.96L139.41,287.97Z" style="fill:white;fill-rule:nonzero;"/>
                <path d="M143.82,276.32C143.6,271.12 141.29,268.92 136.09,268.9C130.05,268.88 124,269.2 117.97,268.49C116.68,268.34 115.11,267.94 114.34,269.34C113.47,270.92 114.9,271.94 115.81,272.95C117.98,275.36 120,277.91 122.15,280.35C122.75,280.53 123.28,280.94 124.06,281.58C125.58,282.82 127.37,283.66 129.25,284.17C131.95,284.9 134.77,284.99 137.56,285.09C139.19,285.14 140.84,285.19 142.43,284.88C142.91,284.05 143.18,283.05 143.42,281.98C143.85,280.08 143.88,278.25 143.8,276.33L143.82,276.32Z" style="fill:white;fill-rule:nonzero;"/>
            </g>
            <g>
                <path d="M156.78,286.75C157.25,286.44 157.75,286.18 158.28,286.01C160.05,285.4 161.96,285.44 163.82,285.35C165.49,285.27 167.17,285.08 168.78,284.58C170.71,283.99 172.49,282.95 173.98,281.6C174.4,281.22 175.79,279.22 176.78,278.77C178.63,276.6 180.37,274.45 182.25,272.42C183.08,271.52 184.17,270.5 183.4,269.17C182.74,268.03 181.42,268.24 180.24,268.34C177.85,268.55 175.45,268.68 172.82,268.85C168.36,268.87 164.13,268.95 159.91,268.88C157.69,268.85 156.18,269.81 154.91,271.55C153.21,273.89 153.79,276.52 153.96,279.01C154.16,281.92 153.64,285.34 156.79,286.75L156.78,286.75Z" style="fill:white;fill-rule:nonzero;"/>
                <path d="M189.15,276.37C188.61,273.77 186.22,272.99 183.94,274.32C181.43,275.77 179.64,277.93 178.09,280.3C177.87,280.64 177.63,280.95 177.38,281.24C177.06,281.98 176.72,282.75 176.1,283.27C175.73,283.58 175.29,283.78 174.85,283.98C172.76,284.94 170.65,285.9 168.4,286.39C166.41,286.83 164.36,286.89 162.34,287.2C160.32,287.51 158.28,288.11 156.74,289.44C156.61,289.55 156.47,289.68 156.33,289.79C154.43,292.54 154.97,294.67 156.67,298.35C157.26,299.63 158.24,300.01 159.66,300.04C163.34,300.12 166.93,299.43 170.5,298.81C176.61,297.75 182.53,295.95 188.21,293.42C188.89,293.12 189.24,292.62 189.35,291.92C190.22,286.72 190.2,281.51 189.14,276.37L189.15,276.37Z" style="fill:white;fill-rule:nonzero;"/>
            </g>
            <g>
                <path d="M233.35,159.38C232.95,155.85 231.17,154.52 227.63,155.16C225.35,155.57 223.08,156.05 220.59,156.52C218.43,156.85 216.34,156.97 214.3,156.85C212.91,156.87 211.52,156.87 210.13,156.81C208.91,156.76 207.69,156.68 206.48,156.57C205.37,156.47 204.22,156.72 203.37,157.44C202.4,158.26 201.98,159.4 201.98,160.97C201.99,170.33 201.98,179.69 202.61,189.03C202.77,191.33 203.97,192.69 206.3,192.99C207.04,193.08 207.78,193.15 208.52,193.26C213.72,194.02 214.45,193.48 215.88,188.46C217.19,183.85 218.47,179.25 220.57,174.88C222.62,170.62 225.78,167.96 230.23,166.6C233.51,165.6 233.82,165.06 233.61,161.62C233.56,160.88 233.46,160.14 233.37,159.4L233.35,159.38Z" style="fill:white;fill-rule:nonzero;"/>
                <path d="M236.38,134.33C229.09,135.62 222.07,134.89 215.17,132.18C211.92,130.9 208.48,130.21 204.94,130.92C203.15,131.28 201.49,131.93 201.28,134.05C200.79,138.9 199.8,143.7 200.56,148.64C200.95,151.16 201.57,153.39 203.64,154.82C204.87,155.67 206.38,155.99 207.87,155.92C209.73,155.83 211.59,155.63 213.45,155.49C214.66,155.37 215.86,155.26 217.07,155.14C222,154.66 226.98,154.73 231.84,153.39C234.53,152.65 235.97,151.11 236.54,148.57C237.39,144.77 238.21,140.97 238.97,137.15C239.36,135.18 238.31,133.99 236.38,134.33Z" style="fill:white;fill-rule:nonzero;"/>
            </g>
        </g>
    </g>
</svg>
